<svg width="33" height="47" viewBox="0 0 33 47" fill="none" xmlns="http://www.w3.org/2000/svg">
<path d="M23.7725 0.930107C25.2076 3.87988 24.995 7.12197 23.2145 9.88572C22.1515 11.5333 19.9458 13.3404 19.308 13.0747C19.122 13.0215 18.6702 12.1446 18.3248 11.1613C17.5807 9.06191 17.687 7.60031 18.6968 5.23518L19.3612 3.72043L18.2982 4.91628C16.9694 6.43103 16.1988 8.63671 16.0128 11.5865C15.8002 14.5894 15.0295 15.7853 12.1595 17.5126C9.58174 19.0539 8.49218 19.1336 7.45577 17.8846C5.51583 15.6258 4.95777 15.0677 4.3997 14.9349C3.89479 14.802 3.86821 14.802 4.26683 15.1209C4.77175 15.4929 6.0739 17.8581 6.0739 18.4161C6.0739 18.6819 5.88788 18.735 5.35639 18.6022C4.6123 18.4427 2.88496 17.4063 2.88496 17.114C2.88496 17.0343 2.69894 16.7419 2.45977 16.4496C2.08772 15.9713 2.06115 15.9713 2.24717 16.6091C2.75208 18.4427 4.66545 19.6917 7.45577 19.984C8.30616 20.0638 9.07682 20.2498 9.15654 20.3561C9.20969 20.4624 8.7845 20.7281 8.17329 20.9141C7.45577 21.1267 6.89771 21.4988 6.60539 22.0037C6.33964 22.4289 5.01092 23.5184 3.65562 24.4486C2.27374 25.3521 0.865294 26.4151 0.519825 26.8137C-0.117963 27.5046 -0.144538 27.5312 0.307229 28.2753C0.5464 28.7005 0.758996 29.2851 0.758996 29.5774C0.758996 30.2418 2.38004 31.4908 3.20385 31.4908C3.54932 31.4642 4.10739 31.3048 4.47943 31.0922C4.87805 30.8796 5.88788 30.7201 6.92428 30.6936C8.75793 30.6936 10.4587 30.4012 12.9036 29.7369C13.9931 29.418 14.3917 29.1522 14.8169 28.4082C15.1358 27.9032 15.375 27.2655 15.375 27.0263C15.4016 26.6011 15.4016 26.6011 15.6407 27.0263C15.8533 27.3452 15.747 27.7969 15.3218 28.6739C14.8169 29.7103 14.5512 29.9229 13.2756 30.4012C12.4518 30.6936 11.0965 31.1188 10.2461 31.3314C9.36914 31.5439 8.59848 31.8097 8.51875 31.8894C8.27958 32.102 8.35931 37.0183 8.59848 38.6128C8.75793 39.6226 8.81107 39.7289 9.10339 39.3037C9.39571 38.9051 9.47544 39.0114 9.60831 40.1275C9.71461 40.8185 9.79433 42.5192 9.79433 43.8745C9.79433 47.4355 9.87405 47.5152 11.5482 45.2564L12.9833 43.343V44.3263C12.9833 45.7879 13.3819 45.5221 14.0728 43.5556C14.6309 41.9612 14.7903 41.7486 15.9596 41.1639C17.5807 40.3401 20.2115 40.287 22.4172 41.0576C23.2676 41.3499 24.0914 41.5891 24.2509 41.5891C24.4103 41.5625 23.7725 40.8716 22.8424 40.0212L21.1151 38.4799L24.9684 39.0911C27.0678 39.4366 29.486 39.8883 30.3099 40.1275C31.1602 40.3401 31.9309 40.5261 32.0372 40.5261C32.1435 40.5261 30.2833 38.533 27.865 36.1148C24.1711 32.4209 23.6397 31.7831 24.49 32.1286L25.4999 32.5272L24.9684 31.8097C24.6761 31.4111 23.6662 30.1355 22.7361 28.9662C21.6997 27.6906 21.1151 26.7605 21.3011 26.6542C21.62 26.4682 18.1122 22.4555 17.5807 22.4555C16.996 22.4555 17.182 22.11 18.7499 20.5421L20.2381 19.0274L17.7401 19.1868C16.3582 19.2665 14.5246 19.4791 13.6476 19.6917C11.1762 20.2498 11.2559 19.6651 13.7805 18.8679C19.122 17.1671 23.3739 14.0845 25.1013 10.7095C25.8719 9.16821 26.0048 8.66329 26.0048 6.9891C26.0048 4.67711 25.2076 2.15253 24.0914 0.850384L23.3208 0L23.7725 0.930107Z" fill="#D53535"/>
</svg>
