<svg width="156" height="47" viewBox="0 0 156 47" fill="none" xmlns="http://www.w3.org/2000/svg">
<path d="M38.2701 30.1328C37.2132 30.1328 36.361 29.8035 35.7135 29.145C35.0716 28.4865 34.7506 27.5651 34.7506 26.3809V19.6406C34.7506 18.224 35.0301 17.1393 35.589 16.3867C36.1534 15.6341 37.0693 15.2578 38.3365 15.2578C39.0283 15.2578 39.6425 15.3851 40.1793 15.6396C40.7216 15.8942 41.1477 16.276 41.4576 16.7852C41.7675 17.2887 41.9225 17.9251 41.9225 18.6943V21.2178H39.0172V19.0596C39.0172 18.6224 38.9619 18.3291 38.8512 18.1797C38.7405 18.0247 38.569 17.9473 38.3365 17.9473C38.0654 17.9473 37.8828 18.0469 37.7887 18.2461C37.6946 18.4398 37.6476 18.6999 37.6476 19.0264V26.3394C37.6476 26.7433 37.7057 27.0283 37.8219 27.1943C37.9436 27.3604 38.1152 27.4434 38.3365 27.4434C38.5856 27.4434 38.7599 27.341 38.8595 27.1362C38.9646 26.9315 39.0172 26.6659 39.0172 26.3394V23.708H41.9557V26.4722C41.9557 27.756 41.6319 28.6885 40.9845 29.2695C40.337 29.8451 39.4322 30.1328 38.2701 30.1328ZM43.9346 30V17.5488H46.9561V18.9351C47.1 18.4536 47.3545 18.0773 47.7198 17.8062C48.085 17.535 48.5443 17.3994 49.0977 17.3994V19.8813C48.8542 19.8813 48.5637 19.909 48.2261 19.9644C47.8885 20.0142 47.5925 20.0861 47.3379 20.1802C47.0834 20.2687 46.9561 20.3683 46.9561 20.479V30H43.9346ZM50.8608 16.7852V14.3115H53.8325V16.7852H50.8608ZM50.8608 30V17.5488H53.8325V30H50.8608ZM56.0604 30V17.5488H58.9657V18.9932C59.0985 18.484 59.3254 18.0939 59.6463 17.8228C59.9673 17.5516 60.4377 17.416 61.0575 17.416C61.5555 17.416 61.9789 17.5322 62.3275 17.7646C62.6817 17.9915 62.9307 18.2931 63.0746 18.6694C63.3014 18.2599 63.5671 17.95 63.8714 17.7397C64.1813 17.5239 64.6213 17.416 65.1913 17.416C65.883 17.416 66.4142 17.5654 66.785 17.8643C67.1613 18.1576 67.4214 18.5671 67.5653 19.0928C67.7147 19.613 67.7894 20.2161 67.7894 20.9023V30H64.826V20.8525C64.826 20.0501 64.6213 19.6489 64.2118 19.6489C63.9959 19.6489 63.8299 19.7236 63.7137 19.873C63.5975 20.0169 63.5173 20.1968 63.473 20.4126C63.4287 20.6284 63.4066 20.8442 63.4066 21.0601V30H60.4432V20.8525C60.4432 20.5924 60.41 20.3324 60.3436 20.0723C60.2827 19.8122 60.1222 19.6821 59.8622 19.6821C59.6408 19.6821 59.4693 19.7624 59.3475 19.9229C59.2258 20.0833 59.1428 20.2826 59.0985 20.5205C59.0542 20.7529 59.0321 20.9826 59.0321 21.2095V30H56.0604ZM69.9924 16.7852V14.3115H72.9641V16.7852H69.9924ZM69.9924 30V17.5488H72.9641V30H69.9924ZM75.1921 30V17.5488H78.1637V19.1343C78.2744 18.6584 78.4792 18.2544 78.778 17.9224C79.0824 17.5848 79.5029 17.416 80.0397 17.416C80.903 17.416 81.5283 17.6816 81.9157 18.2129C82.3086 18.7441 82.5051 19.4718 82.5051 20.396V30H79.5749V20.7031C79.5749 20.4596 79.5251 20.2355 79.4255 20.0308C79.3259 19.8205 79.1543 19.7153 78.9108 19.7153C78.6839 19.7153 78.5151 19.7956 78.4045 19.9561C78.2993 20.111 78.2329 20.3075 78.2052 20.5454C78.1776 20.7778 78.1637 21.0103 78.1637 21.2427V30H75.1921ZM86.9908 30.1328C86.2991 30.1328 85.7706 29.9723 85.4054 29.6514C85.0457 29.3304 84.7994 28.8905 84.6666 28.3315C84.5338 27.7726 84.4674 27.139 84.4674 26.4307C84.4674 25.6725 84.5421 25.0527 84.6915 24.5713C84.8409 24.0843 85.0955 23.6859 85.4552 23.376C85.8204 23.0661 86.3212 22.8032 86.9576 22.5874L88.8004 21.9565V20.6782C88.8004 20.0086 88.5818 19.6738 88.1446 19.6738C87.7462 19.6738 87.547 19.945 87.547 20.4873V21.2344H84.6583C84.6528 21.1901 84.65 21.1348 84.65 21.0684C84.65 20.9964 84.65 20.9162 84.65 20.8276C84.65 19.5881 84.9405 18.7109 85.5216 18.1963C86.1082 17.6761 87.0351 17.416 88.3023 17.416C88.9664 17.416 89.5613 17.535 90.087 17.7729C90.6127 18.0054 91.0278 18.3512 91.3321 18.8105C91.642 19.2699 91.797 19.8371 91.797 20.5122V30H88.8419V28.5225C88.698 29.0426 88.46 29.4411 88.128 29.7178C87.796 29.9945 87.4169 30.1328 86.9908 30.1328ZM88.1612 27.8252C88.4047 27.8252 88.5707 27.7228 88.6593 27.5181C88.7478 27.3133 88.7921 27.092 88.7921 26.854V23.3843C88.3826 23.5503 88.0644 23.7606 87.8375 24.0151C87.6106 24.2642 87.4972 24.6322 87.4972 25.1191V26.7212C87.4972 27.4572 87.7185 27.8252 88.1612 27.8252ZM93.9917 30V15.3906H97.0132V30H93.9917ZM104.341 30V15.3906H107.246V20.6118H108.624V15.3906H111.53V30H108.624V23.376H107.246V30H104.341ZM116.223 30.1328C115.559 30.1328 115.05 29.9945 114.696 29.7178C114.347 29.4411 114.109 29.0565 113.982 28.564C113.854 28.0659 113.791 27.4849 113.791 26.8208V17.5488H116.779V26.4722C116.779 26.9702 116.818 27.3188 116.895 27.5181C116.973 27.7118 117.155 27.8086 117.443 27.8086C117.753 27.8086 117.947 27.6702 118.024 27.3936C118.107 27.1169 118.149 26.7599 118.149 26.3228V17.5488H121.112V30H118.14V28.6719C117.952 29.1478 117.725 29.5103 117.46 29.7593C117.2 30.0083 116.787 30.1328 116.223 30.1328ZM123.357 30V17.5488H126.328V19.1343C126.439 18.6584 126.644 18.2544 126.943 17.9224C127.247 17.5848 127.667 17.416 128.204 17.416C129.068 17.416 129.693 17.6816 130.08 18.2129C130.473 18.7441 130.67 19.4718 130.67 20.396V30H127.739V20.7031C127.739 20.4596 127.69 20.2355 127.59 20.0308C127.49 19.8205 127.319 19.7153 127.075 19.7153C126.848 19.7153 126.68 19.7956 126.569 19.9561C126.464 20.111 126.397 20.3075 126.37 20.5454C126.342 20.7778 126.328 21.0103 126.328 21.2427V30H123.357ZM135.446 30.1328C134.643 30.1328 134.101 29.964 133.819 29.6265C133.542 29.2834 133.404 28.7604 133.404 28.0576V20.2964H132.565V18.0303H133.404V15.3906H136.293V18.0303H137.131V20.2964H136.293V27.3604C136.293 27.5651 136.326 27.709 136.392 27.792C136.459 27.875 136.586 27.9165 136.774 27.9165C136.907 27.9165 137.026 27.9054 137.131 27.8833V29.9087C137.065 29.9308 136.857 29.9723 136.508 30.0332C136.16 30.0996 135.806 30.1328 135.446 30.1328ZM142.621 30.1328C141.736 30.1328 141.03 29.9668 140.504 29.6348C139.979 29.3027 139.602 28.8241 139.375 28.1987C139.149 27.5734 139.035 26.8208 139.035 25.9409V20.9355C139.035 19.779 139.367 18.9046 140.031 18.3125C140.695 17.7148 141.608 17.416 142.77 17.416C145.161 17.416 146.356 18.5892 146.356 20.9355V21.8403C146.356 22.936 146.345 23.672 146.323 24.0483H142.007V26.4556C142.007 26.6769 142.021 26.8955 142.048 27.1113C142.076 27.3216 142.137 27.4959 142.231 27.6343C142.331 27.7726 142.488 27.8418 142.704 27.8418C143.014 27.8418 143.208 27.709 143.285 27.4434C143.363 27.1722 143.401 26.8208 143.401 26.3892V25.1938H146.356V25.8994C146.356 26.8291 146.24 27.6094 146.008 28.2402C145.781 28.8656 145.394 29.3387 144.846 29.6597C144.303 29.9751 143.562 30.1328 142.621 30.1328ZM141.99 22.5708H143.401V20.894C143.401 20.4458 143.346 20.1248 143.235 19.9312C143.125 19.7319 142.959 19.6323 142.737 19.6323C142.499 19.6323 142.314 19.7264 142.181 19.9146C142.054 20.1027 141.99 20.4292 141.99 20.894V22.5708ZM148.485 30V17.5488H151.506V18.9351C151.65 18.4536 151.905 18.0773 152.27 17.8062C152.635 17.535 153.094 17.3994 153.648 17.3994V19.8813C153.404 19.8813 153.114 19.909 152.776 19.9644C152.439 20.0142 152.143 20.0861 151.888 20.1802C151.634 20.2687 151.506 20.3683 151.506 20.479V30H148.485Z" fill="#D33232"/>
<path d="M23.7725 0.930107C25.2076 3.87988 24.995 7.12197 23.2145 9.88572C22.1515 11.5333 19.9458 13.3404 19.308 13.0747C19.122 13.0215 18.6702 12.1446 18.3248 11.1613C17.5807 9.06191 17.687 7.60031 18.6968 5.23518L19.3612 3.72043L18.2982 4.91628C16.9695 6.43103 16.1988 8.63672 16.0128 11.5865C15.8002 14.5894 15.0295 15.7853 12.1595 17.5126C9.58174 19.0539 8.49218 19.1336 7.45577 17.8846C5.51583 15.6258 4.95777 15.0677 4.3997 14.9349C3.89479 14.802 3.86821 14.802 4.26683 15.1209C4.77175 15.4929 6.0739 17.8581 6.0739 18.4161C6.0739 18.6819 5.88788 18.735 5.35639 18.6022C4.6123 18.4427 2.88496 17.4063 2.88496 17.114C2.88496 17.0343 2.69894 16.7419 2.45977 16.4496C2.08772 15.9713 2.06115 15.9713 2.24717 16.6091C2.75208 18.4427 4.66545 19.6917 7.45577 19.984C8.30616 20.0638 9.07682 20.2498 9.15654 20.3561C9.20969 20.4624 8.7845 20.7281 8.17329 20.9141C7.45577 21.1267 6.89771 21.4988 6.60539 22.0037C6.33964 22.4289 5.01092 23.5184 3.65562 24.4486C2.27374 25.3521 0.865294 26.4151 0.519825 26.8137C-0.117963 27.5046 -0.144538 27.5312 0.307229 28.2753C0.5464 28.7005 0.758996 29.2851 0.758996 29.5774C0.758996 30.2418 2.38004 31.4908 3.20385 31.4908C3.54932 31.4642 4.10739 31.3048 4.47943 31.0922C4.87805 30.8796 5.88788 30.7201 6.92428 30.6936C8.75793 30.6936 10.4587 30.4012 12.9035 29.7369C13.9931 29.418 14.3917 29.1522 14.8169 28.4082C15.1358 27.9032 15.375 27.2655 15.375 27.0263C15.4016 26.6011 15.4016 26.6011 15.6407 27.0263C15.8533 27.3452 15.747 27.7969 15.3218 28.6739C14.8169 29.7103 14.5512 29.9229 13.2756 30.4012C12.4518 30.6936 11.0965 31.1188 10.2461 31.3314C9.36914 31.5439 8.59848 31.8097 8.51875 31.8894C8.27958 32.102 8.35931 37.0183 8.59848 38.6128C8.75793 39.6226 8.81107 39.7289 9.10339 39.3037C9.39571 38.9051 9.47544 39.0114 9.60831 40.1275C9.71461 40.8185 9.79433 42.5192 9.79433 43.8745C9.79433 47.4355 9.87405 47.5152 11.5482 45.2564L12.9833 43.343V44.3263C12.9833 45.7879 13.3819 45.5221 14.0728 43.5556C14.6309 41.9612 14.7903 41.7486 15.9596 41.1639C17.5807 40.3401 20.2115 40.287 22.4172 41.0576C23.2676 41.3499 24.0914 41.5891 24.2509 41.5891C24.4103 41.5625 23.7725 40.8716 22.8424 40.0212L21.1151 38.4799L24.9684 39.0911C27.0678 39.4366 29.486 39.8883 30.3099 40.1275C31.1602 40.3401 31.9309 40.5261 32.0372 40.5261C32.1435 40.5261 30.2833 38.533 27.865 36.1148C24.1711 32.4209 23.6397 31.7831 24.49 32.1286L25.4999 32.5272L24.9684 31.8097C24.6761 31.4111 23.6662 30.1355 22.7361 28.9662C21.6997 27.6906 21.1151 26.7605 21.3011 26.6542C21.62 26.4682 18.1122 22.4555 17.5807 22.4555C16.996 22.4555 17.182 22.11 18.7499 20.5421L20.2381 19.0274L17.7401 19.1868C16.3582 19.2665 14.5246 19.4791 13.6476 19.6917C11.1762 20.2498 11.2559 19.6651 13.7805 18.8679C19.122 17.1671 23.3739 14.0845 25.1013 10.7095C25.8719 9.16821 26.0048 8.66329 26.0048 6.9891C26.0048 4.67711 25.2076 2.15253 24.0914 0.850383L23.3208 -1.21806e-06L23.7725 0.930107Z" fill="#D33232"/>
</svg>
