<svg width="161" height="235" viewBox="0 0 161 235" fill="none" xmlns="http://www.w3.org/2000/svg">
<path d="M119.275 4.66667C126.475 19.4667 125.408 35.7333 116.475 49.6C111.141 57.8667 100.075 66.9333 96.8748 65.6C95.9415 65.3333 93.6748 60.9333 91.9415 56C88.2081 45.4667 88.7415 38.1333 93.8081 26.2667L97.1415 18.6667L91.8081 24.6667C85.1415 32.2667 81.2748 43.3333 80.3415 58.1333C79.2748 73.2 75.4081 79.2 61.0081 87.8667C48.0748 95.6 42.6081 96 37.4081 89.7333C27.6748 78.4 24.8748 75.6 22.0748 74.9333C19.5415 74.2667 19.4081 74.2667 21.4081 75.8667C23.9415 77.7333 30.4748 89.6 30.4748 92.4C30.4748 93.7333 29.5415 94 26.8748 93.3333C23.1415 92.5333 14.4748 87.3333 14.4748 85.8667C14.4748 85.4667 13.5415 84 12.3415 82.5333C10.4748 80.1333 10.3415 80.1333 11.2748 83.3333C13.8081 92.5333 23.4081 98.8 37.4081 100.267C41.6748 100.667 45.5415 101.6 45.9415 102.133C46.2081 102.667 44.0748 104 41.0081 104.933C37.4081 106 34.6081 107.867 33.1415 110.4C31.8081 112.533 25.1415 118 18.3415 122.667C11.4081 127.2 4.34147 132.533 2.60814 134.533C-0.59186 138 -0.725194 138.133 1.54147 141.867C2.74147 144 3.80814 146.933 3.80814 148.4C3.80814 151.733 11.9415 158 16.0748 158C17.8081 157.867 20.6081 157.067 22.4748 156C24.4748 154.933 29.5415 154.133 34.7415 154C43.9415 154 52.4748 152.533 64.7415 149.2C70.2081 147.6 72.2081 146.267 74.3415 142.533C75.9415 140 77.1415 136.8 77.1415 135.6C77.2748 133.467 77.2748 133.467 78.4748 135.6C79.5415 137.2 79.0081 139.467 76.8748 143.867C74.3415 149.067 73.0081 150.133 66.6081 152.533C62.4748 154 55.6748 156.133 51.4081 157.2C47.0081 158.267 43.1415 159.6 42.7415 160C41.5415 161.067 41.9415 185.733 43.1415 193.733C43.9415 198.8 44.2081 199.333 45.6748 197.2C47.1415 195.2 47.5415 195.733 48.2081 201.333C48.7415 204.8 49.1415 213.333 49.1415 220.133C49.1415 238 49.5415 238.4 57.9415 227.067L65.1415 217.467V222.4C65.1415 229.733 67.1415 228.4 70.6081 218.533C73.4081 210.533 74.2081 209.467 80.0748 206.533C88.2081 202.4 101.408 202.133 112.475 206C116.741 207.467 120.875 208.667 121.675 208.667C122.475 208.533 119.275 205.067 114.608 200.8L105.941 193.067L125.275 196.133C135.808 197.867 147.941 200.133 152.075 201.333C156.341 202.4 160.208 203.333 160.741 203.333C161.275 203.333 151.941 193.333 139.808 181.2C121.275 162.667 118.608 159.467 122.875 161.2L127.941 163.2L125.275 159.6C123.808 157.6 118.741 151.2 114.075 145.333C108.875 138.933 105.941 134.267 106.875 133.733C108.475 132.8 90.8748 112.667 88.2081 112.667C85.2748 112.667 86.2081 110.933 94.0748 103.067L101.541 95.4667L89.0081 96.2667C82.0748 96.6667 72.8748 97.7333 68.4748 98.8C56.0748 101.6 56.4748 98.6667 69.1415 94.6667C95.9415 86.1333 117.275 70.6667 125.941 53.7333C129.808 46 130.475 43.4667 130.475 35.0667C130.475 23.4667 126.475 10.8 120.875 4.26668L117.008 0L119.275 4.66667Z" fill="white"/>
</svg>
